<svg width="7" height="9" viewBox="0 0 7 9" fill="none" xmlns="http://www.w3.org/2000/svg">
<path d="M6.00018 4.14882L1.99507 0.143779C1.90244 0.0510728 1.77878 0 1.64693 0C1.51507 0 1.39142 0.0510728 1.29878 0.143779L1.00383 0.438655C0.811909 0.6308 0.811909 0.94309 1.00383 1.13494L4.36703 4.49813L1.0001 7.86506C0.907469 7.95776 0.856323 8.08135 0.856323 8.21313C0.856323 8.34505 0.907469 8.46864 1.0001 8.56142L1.29505 8.85622C1.38776 8.94893 1.51134 9 1.64319 9C1.77505 9 1.89871 8.94893 1.99134 8.85622L6.00018 4.84752C6.09304 4.75452 6.14404 4.63035 6.14374 4.49835C6.14404 4.36584 6.09304 4.24175 6.00018 4.14882Z" fill="white"/>
</svg>
