<svg width="36" height="36" viewBox="0 0 36 36" fill="none" xmlns="http://www.w3.org/2000/svg">
<path fill-rule="evenodd" clip-rule="evenodd" d="M18 0C27.9408 0 36 8.06192 36 18.0025C36 27.943 27.9408 36 18 36C8.05922 36 0 27.9431 0 18.0025C0 8.06185 8.05922 0 18 0ZM22.6687 18.2739C22.6687 18.4334 22.7321 18.5863 22.8449 18.6991C22.9577 18.8119 23.1106 18.8753 23.2701 18.8753C23.4296 18.8753 23.5826 18.8119 23.6954 18.6991C23.8082 18.5863 23.8715 18.4334 23.8715 18.2739V18.2703C23.871 18.1108 23.8072 17.958 23.6941 17.8456C23.581 17.7331 23.4278 17.6702 23.2683 17.6707C23.1088 17.6712 22.9561 17.735 22.8436 17.8481C22.7312 17.9612 22.6683 18.1144 22.6687 18.2739ZM22.6687 14.4178C22.6687 14.5773 22.7321 14.7302 22.8449 14.843C22.9577 14.9558 23.1106 15.0192 23.2701 15.0192C23.4296 15.0192 23.5826 14.9558 23.6954 14.843C23.8082 14.7302 23.8715 14.5773 23.8715 14.4178V14.4142C23.871 14.2547 23.8072 14.1019 23.6941 13.9895C23.581 13.877 23.4278 13.8141 23.2683 13.8146C23.1088 13.8151 22.9561 13.8789 22.8436 13.992C22.7312 14.1051 22.6683 14.2583 22.6687 14.4178ZM24.5964 16.344C24.5963 16.4631 24.6315 16.5796 24.6975 16.6788C24.7636 16.7779 24.8575 16.8552 24.9675 16.9009C25.0775 16.9467 25.1986 16.9587 25.3155 16.9356C25.4324 16.9125 25.5398 16.8553 25.6241 16.7712C25.7084 16.687 25.7659 16.5798 25.7893 16.463C25.8127 16.3462 25.8009 16.2251 25.7555 16.1149C25.71 16.0048 25.6329 15.9107 25.5339 15.8444C25.435 15.7781 25.3186 15.7426 25.1994 15.7425H25.1959C25.1169 15.7424 25.0388 15.758 24.9659 15.7882C24.8931 15.8185 24.8269 15.8628 24.7712 15.9187C24.7155 15.9746 24.6714 16.0409 24.6414 16.1139C24.6114 16.1869 24.5961 16.2651 24.5964 16.344ZM20.7414 16.344C20.7413 16.4631 20.7765 16.5795 20.8425 16.6786C20.9086 16.7776 21.0025 16.8549 21.1125 16.9006C21.2224 16.9462 21.3435 16.9583 21.4603 16.9352C21.5771 16.9121 21.6844 16.8549 21.7687 16.7708C21.853 16.6867 21.9105 16.5795 21.9339 16.4628C21.9572 16.346 21.9455 16.225 21.9001 16.1149C21.8547 16.0048 21.7776 15.9107 21.6787 15.8444C21.5798 15.7781 21.4635 15.7426 21.3444 15.7425H21.3408C21.2619 15.7424 21.1838 15.758 21.1109 15.7883C21.0381 15.8185 20.9719 15.8628 20.9162 15.9187C20.8605 15.9746 20.8164 16.041 20.7864 16.1139C20.7564 16.1869 20.7411 16.2651 20.7414 16.344ZM10.1983 16.344C10.1982 16.423 10.2137 16.5013 10.2439 16.5743C10.2741 16.6473 10.3184 16.7137 10.3743 16.7695C10.4302 16.8254 10.4965 16.8697 10.5696 16.8999C10.6426 16.9301 10.7208 16.9456 10.7999 16.9455H12.1378V18.2846C12.1357 18.3648 12.1497 18.4447 12.1789 18.5195C12.2082 18.5943 12.2521 18.6625 12.3082 18.7201C12.3642 18.7776 12.4312 18.8233 12.5052 18.8546C12.5792 18.8858 12.6587 18.9019 12.739 18.9019C12.8193 18.9019 12.8988 18.8858 12.9728 18.8546C13.0468 18.8233 13.1138 18.7776 13.1698 18.7201C13.2259 18.6625 13.2698 18.5943 13.2991 18.5195C13.3283 18.4447 13.3423 18.3648 13.3402 18.2846V16.9455H14.6778C14.7568 16.9455 14.835 16.93 14.908 16.8997C14.981 16.8695 15.0473 16.8252 15.1031 16.7693C15.159 16.7135 15.2033 16.6472 15.2335 16.5742C15.2638 16.5012 15.2793 16.423 15.2793 16.344C15.2793 16.265 15.2638 16.1868 15.2335 16.1138C15.2033 16.0408 15.159 15.9745 15.1031 15.9187C15.0473 15.8628 14.981 15.8185 14.908 15.7883C14.835 15.758 14.7568 15.7425 14.6778 15.7425H13.3409V14.4034C13.343 14.3231 13.329 14.2432 13.2998 14.1684C13.2705 14.0936 13.2266 14.0255 13.1705 13.9679C13.1145 13.9104 13.0475 13.8647 12.9735 13.8334C12.8995 13.8022 12.82 13.7861 12.7397 13.7861C12.6594 13.7861 12.5799 13.8022 12.5059 13.8334C12.4319 13.8647 12.3649 13.9104 12.3089 13.9679C12.2528 14.0255 12.2089 14.0936 12.1796 14.1684C12.1504 14.2432 12.1364 14.3231 12.1385 14.4034V15.7425H10.8C10.721 15.7424 10.6427 15.7579 10.5697 15.7881C10.4967 15.8183 10.4303 15.8626 10.3745 15.9184C10.3186 15.9743 10.2743 16.0407 10.2441 16.1137C10.2139 16.1867 10.1984 16.265 10.1985 16.344H10.1983ZM9.60694 13.3968L9.60391 13.4017L9.60124 13.4067C8.65603 15.1762 7.81741 17.0489 7.25435 18.9776C6.80435 20.5193 6.51663 22.153 6.5835 23.7637L6.58392 23.7727L6.58505 23.7815C6.67118 24.4354 6.8208 25.2498 7.13412 25.8391C7.25084 26.0585 7.43984 26.33 7.68255 26.4237C7.94918 26.5264 8.27423 26.4229 8.52068 26.3092C8.89042 26.1259 9.23491 25.8956 9.54556 25.6239L9.56137 25.6107L9.57417 25.5944C10.4051 24.539 11.2234 23.4507 11.9578 22.3254C12.1724 21.9951 12.487 21.7421 12.8555 21.6032C13.2241 21.4643 13.6274 21.4468 14.0066 21.5533C15.3063 21.9128 16.6486 22.0947 17.9971 22.094H18C19.3491 22.0951 20.6922 21.9132 21.9924 21.5533C22.3717 21.4468 22.7751 21.4643 23.1437 21.6032C23.5124 21.7422 23.8269 21.9953 24.0415 22.3257C24.7756 23.4507 25.5949 24.5392 26.4251 25.5947L26.4379 25.6109L26.4537 25.6243C26.7644 25.896 27.1089 26.1263 27.4787 26.3095C27.7248 26.423 28.05 26.5268 28.3165 26.424C28.5595 26.3302 28.7484 26.059 28.8649 25.8394C29.1784 25.2502 29.328 24.4358 29.4141 23.7819L29.4153 23.773V23.7641C29.4822 22.1534 29.1947 20.5197 28.7446 18.9779C28.1815 17.0494 27.3428 15.1766 26.3976 13.4071L26.3949 13.402L26.3919 13.3972C25.4562 11.8627 23.9963 11.3571 22.2477 11.4755C22.0586 11.486 21.8755 11.5456 21.7166 11.6484C20.6019 12.3402 19.3131 12.6999 18.0013 12.6853H17.9965C16.6847 12.7014 15.3956 12.3417 14.2818 11.6485C14.1228 11.5456 13.9398 11.486 13.7507 11.4755C12.0023 11.357 10.542 11.863 9.60645 13.3972L9.60694 13.3968ZM11.468 9.5342C11.3884 9.53463 11.3121 9.56644 11.2558 9.62273C11.1995 9.67902 11.1677 9.75524 11.1672 9.83486V10.5921L11.4259 10.5137C12.1428 10.3069 12.8894 10.2226 13.6344 10.2643L13.8435 10.2733V9.83486C13.843 9.75526 13.8112 9.67904 13.7549 9.62275C13.6986 9.56646 13.6224 9.53464 13.5428 9.5342H11.468ZM22.4578 9.5342C22.3782 9.53463 22.302 9.56644 22.2457 9.62273C22.1894 9.67902 22.1575 9.75524 22.1571 9.83486V10.2733L22.3661 10.2643C23.1111 10.2226 23.8578 10.3069 24.5747 10.5137L24.8333 10.592V9.83486C24.8329 9.75524 24.801 9.67902 24.7447 9.62273C24.6884 9.56644 24.6122 9.53463 24.5326 9.5342H22.4578Z" fill="#2180FF"/>
</svg>
